<svg width="55" height="82" viewBox="0 0 55 82" fill="none" xmlns="http://www.w3.org/2000/svg">
<g clip-path="url(#clip0_2165_1228)">
<path d="M14.2192 81.4811C21.6273 81.4811 27.6396 75.4688 27.6396 68.0607V54.6403H14.2192C6.81117 54.6403 0.798828 60.6527 0.798828 68.0607C0.798828 75.4688 6.81117 81.4811 14.2192 81.4811Z" fill="#0ACF83"/>
<path d="M0.798828 41.2199C0.798828 33.8119 6.81117 27.7995 14.2192 27.7995H27.6396V54.6404H14.2192C6.81117 54.6404 0.798828 48.628 0.798828 41.2199Z" fill="#A259FF"/>
<path d="M0.798828 14.3791C0.798828 6.97106 6.81117 0.958717 14.2192 0.958717H27.6396V27.7995H14.2192C6.81117 27.7995 0.798828 21.7872 0.798828 14.3791Z" fill="#F24E1E"/>
<path d="M27.6406 0.958729H41.061C48.4691 0.958729 54.4814 6.97107 54.4814 14.3791C54.4814 21.7872 48.4691 27.7995 41.061 27.7995H27.6406V0.958729Z" fill="#FF7262"/>
<path d="M54.4814 41.22C54.4814 48.628 48.4691 54.6404 41.061 54.6404C33.653 54.6404 27.6406 48.628 27.6406 41.22C27.6406 33.8119 33.653 27.7995 41.061 27.7995C48.4691 27.7995 54.4814 33.8119 54.4814 41.22Z" fill="#1ABCFE"/>
</g>
<defs>
<clipPath id="clip0_2165_1228">
<rect width="53.6816" height="80.5224" fill="white" transform="translate(0.798828 0.958729)"/>
</clipPath>
</defs>
</svg>
